<svg id="Layer_1" data-name="Layer 1" xmlns="http://www.w3.org/2000/svg" viewBox="0 0 204.09 133.08"><defs><style>.cls-1{fill:#fff;}</style></defs><title>dolittle_neg_trans_vertikal</title><path class="cls-1" d="M99.73,44.66H94a1,1,0,0,0-.85.49l-2.85,4.93a1,1,0,0,0,0,1L93.18,56a1,1,0,0,0,.85.49h5.7a1,1,0,0,0,.85-.49l2.85-4.93a1,1,0,0,0,0-1l-2.85-4.93a1,1,0,0,0-.85-.49Z"/><path class="cls-1" d="M108.69,31.58a.49.49,0,0,0-.84,0l-4.61,8a.85.85,0,0,0,0,.82l5.72,9.9a.61.61,0,0,1,0,.61l-5.78,10a.61.61,0,0,1-.53.31H91.22a.84.84,0,0,0-.71.41l-4.6,8a.49.49,0,0,0,.42.73H107a2.2,2.2,0,0,0,1.9-1.09L119,51.67a2.2,2.2,0,0,0,0-2.19Z"/><path class="cls-1" d="M61.16,92v0a8.76,8.76,0,0,1,17.52,0v0a8.53,8.53,0,0,1-8.82,8.49A8.44,8.44,0,0,1,61.16,92ZM74.88,92V92a5,5,0,0,0-5-5.19,4.93,4.93,0,0,0-5,5.11v.05a5,5,0,0,0,5,5.2A4.93,4.93,0,0,0,74.88,92Z"/><path class="cls-1" d="M61.16,92v0a8.76,8.76,0,0,1,17.52,0v0a8.53,8.53,0,0,1-8.82,8.49A8.44,8.44,0,0,1,61.16,92ZM74.88,92V92a5,5,0,0,0-5-5.19,4.93,4.93,0,0,0-5,5.11v.05a5,5,0,0,0,5,5.2A4.93,4.93,0,0,0,74.88,92Z"/><path class="cls-1" d="M43.72,84.73a1.13,1.13,0,0,1,1.12-1.11l5.32,0c5.18,0,8.74,3.59,8.72,8.23v0c0,4.64-3.61,8.23-8.78,8.21l-5.32,0A1.12,1.12,0,0,1,43.67,99Zm6.39,12.12a4.69,4.69,0,0,0,5-4.9v0a4.73,4.73,0,0,0-5-5h-2.8l0,9.94Z"/><path class="cls-1" d="M81.48,85.34a1.79,1.79,0,0,1,2-1.79,1.86,1.86,0,0,1,1.64,1.89l0,11.43,6.65,0a1.7,1.7,0,0,1,1.69,1.39,1.65,1.65,0,0,1-1.64,1.91l-9.21,0A1.13,1.13,0,0,1,81.43,99Z"/><path class="cls-1" d="M96.22,85.34a1.82,1.82,0,0,1,3.63,0l0,13.13a1.82,1.82,0,1,1-3.63,0Z"/><path class="cls-1" d="M107.58,87h-3.49a1.68,1.68,0,0,1,0-3.35l10.6,0a1.68,1.68,0,0,1,0,3.35l-3.49,0,0,11.47a1.82,1.82,0,0,1-3.63,0Z"/><path class="cls-1" d="M122.85,87h-3.49a1.68,1.68,0,0,1,0-3.35l10.6,0a1.68,1.68,0,0,1,0,3.35l-3.49,0,0,11.47a1.81,1.81,0,1,1-3.62,0Z"/><path class="cls-1" d="M134.27,85.33a1.81,1.81,0,0,1,2-1.8,1.87,1.87,0,0,1,1.64,1.89l0,11.44,6.64,0a1.69,1.69,0,0,1,1.69,1.39,1.65,1.65,0,0,1-1.64,1.91l-9.21,0A1.12,1.12,0,0,1,134.22,99Z"/><path class="cls-1" d="M148.8,99l0-14.25a1.11,1.11,0,0,1,1.11-1.1l9.75,0a1.68,1.68,0,0,1,1.7,1.47,1.6,1.6,0,0,1-1.62,1.75l-7.35,0v3.34l6.2,0a1.68,1.68,0,0,1,1.7,1.48,1.61,1.61,0,0,1-1.62,1.75l-6.29,0v3.47l7.37,0a1.69,1.69,0,0,1,1.7,1.48,1.61,1.61,0,0,1-1.62,1.75l-9.94,0A1.12,1.12,0,0,1,148.8,99Z"/><path class="cls-1" d="M148.8,99l0-14.25a1.11,1.11,0,0,1,1.11-1.1l9.75,0a1.68,1.68,0,0,1,1.7,1.47,1.6,1.6,0,0,1-1.62,1.75l-7.35,0v3.34l6.2,0a1.68,1.68,0,0,1,1.7,1.48,1.61,1.61,0,0,1-1.62,1.75l-6.29,0v3.47l7.37,0a1.69,1.69,0,0,1,1.7,1.48,1.61,1.61,0,0,1-1.62,1.75l-9.94,0A1.12,1.12,0,0,1,148.8,99Z"/></svg>