<svg width="67" height="66" viewBox="0 0 67 66" fill="none" xmlns="http://www.w3.org/2000/svg">
<path d="M1.4502 64.2205V4.22045C11.7658 0.350345 23.1346 0.350345 33.4502 4.22045V4.22045V64.2205C23.1346 60.3503 11.7658 60.3503 1.4502 64.2205V64.2205Z" stroke="#F2F2F2" stroke-width="2" stroke-linecap="round" stroke-linejoin="round"/>
<path d="M11.6104 16.2699C15.4507 15.4426 19.4115 15.3374 23.2904 15.9598" stroke="#F2F2F2" stroke-width="2" stroke-linecap="round" stroke-linejoin="round"/>
<path d="M11.6104 32.3904C15.4501 31.56 19.4109 31.4511 23.2904 32.0701" stroke="#F2F2F2" stroke-width="2" stroke-linecap="round" stroke-linejoin="round"/>
<path d="M11.6104 48.5001C15.4501 47.6678 19.4119 47.5626 23.2904 48.19" stroke="#F2F2F2" stroke-width="2" stroke-linecap="round" stroke-linejoin="round"/>
<path d="M33.4502 64.2205V4.22045C43.7658 0.350345 55.1346 0.350345 65.4502 4.22045V4.22045V64.2205C55.1346 60.3503 43.7658 60.3503 33.4502 64.2205V64.2205Z" stroke="#F2F2F2" stroke-width="2" stroke-linecap="round" stroke-linejoin="round"/>
<path d="M43.6104 16.2699C47.4507 15.4426 51.4115 15.3374 55.2904 15.9598" stroke="#F2F2F2" stroke-width="2" stroke-linecap="round" stroke-linejoin="round"/>
<path d="M43.6104 32.4104C47.4501 31.58 51.4109 31.4712 55.2904 32.0901" stroke="#F2F2F2" stroke-width="2" stroke-linecap="round" stroke-linejoin="round"/>
<path d="M43.6104 48.5C45.0544 48.1909 46.5178 47.9805 47.9904 47.8701" stroke="#F2F2F2" stroke-width="2" stroke-linecap="round" stroke-linejoin="round"/>
</svg>
