<svg width="59" height="60" viewBox="0 0 59 60" fill="none" xmlns="http://www.w3.org/2000/svg">
<path d="M43.5833 0H0V26.9457H43.5833V0Z" transform="translate(7.70801 25.447)" stroke="#BDBDBD" stroke-width="2" stroke-miterlimit="10" stroke-linecap="round" stroke-linejoin="round"/>
<path d="M55.993 52.8663C55.993 54.9106 54.3382 56.5829 52.3153 56.5829H3.67792C1.65486 56.5829 0 54.9106 0 52.8663V3.71664C0 1.6725 1.65508 0 3.67792 0H52.3153C54.3384 0 55.993 1.6725 55.993 3.71664V52.8663V52.8663Z" transform="translate(1.50293 1.70847)" stroke="#BDBDBD" stroke-width="2" stroke-miterlimit="10" stroke-linecap="round" stroke-linejoin="round"/>
<path d="M9.14691 0H0" transform="translate(1.50342 14.8715)" stroke="#BDBDBD" stroke-width="2" stroke-miterlimit="10" stroke-linecap="round" stroke-linejoin="round"/>
<path d="M9.19492 0H0" transform="translate(32.7183 14.8715)" stroke="#BDBDBD" stroke-width="2" stroke-miterlimit="10" stroke-linecap="round" stroke-linejoin="round"/>
<path d="M9.1467 0H0" transform="translate(48.3491 14.8715)" stroke="#BDBDBD" stroke-width="2" stroke-miterlimit="10" stroke-linecap="round" stroke-linejoin="round"/>
<path d="M9.19492 0H0" transform="translate(17.0869 14.8715)" stroke="#BDBDBD" stroke-width="2" stroke-miterlimit="10" stroke-linecap="round" stroke-linejoin="round"/>
<path d="M0 0H43.5833" transform="translate(7.70801 38.9199)" stroke="#BDBDBD" stroke-width="2" stroke-miterlimit="10" stroke-linecap="round" stroke-linejoin="round"/>
<path d="M6.43631 7.77156C6.43631 9.00305 5.44813 10.0016 4.22947 10.0016H2.20684C0.987962 10.0016 0 9.00327 0 7.77156V2.23007C0 0.998585 0.987962 0 2.20684 0H4.22947C5.44813 0 6.43631 0.998585 6.43631 2.23007V7.77156Z" transform="translate(26.2822 9.87056)" stroke="#BDBDBD" stroke-width="2" stroke-miterlimit="10" stroke-linecap="round" stroke-linejoin="round"/>
<path d="M6.43631 7.77156C6.43631 9.00305 5.44813 10.0016 4.22947 10.0016H2.2064C0.987959 10.0016 0 9.00327 0 7.77156V2.23007C0 0.998585 0.987959 0 2.2064 0H4.22947C5.44813 0 6.43631 0.998585 6.43631 2.23007V7.77156Z" transform="translate(41.9131 9.87056)" stroke="#BDBDBD" stroke-width="2" stroke-miterlimit="10" stroke-linecap="round" stroke-linejoin="round"/>
<path d="M6.43632 7.77156C6.43632 9.00305 5.44814 10.0016 4.22947 10.0016H2.20684C0.987962 10.0016 0 9.00327 0 7.77156V2.23007C0 0.998585 0.987962 0 2.20684 0H4.22947C5.44814 0 6.43632 0.998585 6.43632 2.23007V7.77156Z" transform="translate(10.6509 9.87056)" stroke="#BDBDBD" stroke-width="2" stroke-miterlimit="10" stroke-linecap="round" stroke-linejoin="round"/>
<path d="M0 0V26.9457" transform="translate(29.5 25.447)" stroke="#BDBDBD" stroke-width="2" stroke-miterlimit="10" stroke-linecap="round" stroke-linejoin="round"/>
<path d="M0 0V26.9457" transform="translate(18.374 25.447)" stroke="#BDBDBD" stroke-width="2" stroke-miterlimit="10" stroke-linecap="round" stroke-linejoin="round"/>
<path d="M0 0V26.9457" transform="translate(40.6255 25.447)" stroke="#BDBDBD" stroke-width="2" stroke-miterlimit="10" stroke-linecap="round" stroke-linejoin="round"/>
</svg>
