<svg width="67" height="67" viewBox="0 0 67 67" fill="none" xmlns="http://www.w3.org/2000/svg">
<path d="M65.0798 1.41016H1.07983V65.4102H65.0798V1.41016Z" stroke="#F2F2F2" stroke-width="2" stroke-linecap="round" stroke-linejoin="round"/>
<path d="M65.0798 26.6802H1.07983" stroke="#F2F2F2" stroke-width="2" stroke-linecap="round" stroke-linejoin="round"/>
<path d="M53.3799 16.6499C55.0367 16.6499 56.3799 15.3068 56.3799 13.6499C56.3799 11.993 55.0367 10.6499 53.3799 10.6499C51.723 10.6499 50.3799 11.993 50.3799 13.6499C50.3799 15.3068 51.723 16.6499 53.3799 16.6499Z" fill="#F2F2F2"/>
<path d="M42.8298 16.6499C44.4867 16.6499 45.8298 15.3068 45.8298 13.6499C45.8298 11.993 44.4867 10.6499 42.8298 10.6499C41.173 10.6499 39.8298 11.993 39.8298 13.6499C39.8298 15.3068 41.173 16.6499 42.8298 16.6499Z" fill="#F2F2F2"/>
<path d="M32.2798 16.6499C33.9366 16.6499 35.2798 15.3068 35.2798 13.6499C35.2798 11.993 33.9366 10.6499 32.2798 10.6499C30.6229 10.6499 29.2798 11.993 29.2798 13.6499C29.2798 15.3068 30.6229 16.6499 32.2798 16.6499Z" fill="#F2F2F2"/>
</svg>
