<svg width="67" height="67" viewBox="0 0 67 67" fill="none" xmlns="http://www.w3.org/2000/svg">
<path d="M65.1199 1.41016H1.11987V65.4102H65.1199V1.41016Z" stroke="#F2F2F2" stroke-width="2" stroke-linecap="round" stroke-linejoin="round"/>
<path d="M65.1199 26.6802H1.11987" stroke="#F2F2F2" stroke-width="2" stroke-linecap="round" stroke-linejoin="round"/>
<path d="M46.3499 39.6899H19.8899" stroke="#F2F2F2" stroke-width="2" stroke-linecap="round" stroke-linejoin="round"/>
<path d="M23.3398 49.6899H19.8899" stroke="#F2F2F2" stroke-width="2" stroke-linecap="round" stroke-linejoin="round"/>
<path d="M46.3499 49.6899H32.8899" stroke="#F2F2F2" stroke-width="2" stroke-linecap="round" stroke-linejoin="round"/>
<path d="M53.4199 16.6499C55.0768 16.6499 56.4199 15.3068 56.4199 13.6499C56.4199 11.993 55.0768 10.6499 53.4199 10.6499C51.7631 10.6499 50.4199 11.993 50.4199 13.6499C50.4199 15.3068 51.7631 16.6499 53.4199 16.6499Z" fill="#F2F2F2"/>
<path d="M42.8699 16.6499C44.5267 16.6499 45.8699 15.3068 45.8699 13.6499C45.8699 11.993 44.5267 10.6499 42.8699 10.6499C41.213 10.6499 39.8699 11.993 39.8699 13.6499C39.8699 15.3068 41.213 16.6499 42.8699 16.6499Z" fill="#F2F2F2"/>
<path d="M32.3198 16.6499C33.9767 16.6499 35.3198 15.3068 35.3198 13.6499C35.3198 11.993 33.9767 10.6499 32.3198 10.6499C30.663 10.6499 29.3198 11.993 29.3198 13.6499C29.3198 15.3068 30.663 16.6499 32.3198 16.6499Z" fill="#F2F2F2"/>
</svg>
