<svg width="66" height="67" viewBox="0 0 66 67" fill="none" xmlns="http://www.w3.org/2000/svg">
<path d="M64.98 33.1201C64.98 39.4491 63.1032 45.6358 59.587 50.8981C56.0708 56.1605 51.0731 60.262 45.2258 62.684C39.3786 65.106 32.9445 65.7398 26.7371 64.5051C20.5297 63.2703 14.8278 60.2225 10.3526 55.7473C5.87728 51.272 2.82959 45.5701 1.59487 39.3627C0.360139 33.1553 0.993845 26.7212 3.41585 20.874C5.83785 15.0267 9.93937 10.0291 15.2017 6.51289C20.4641 2.99668 26.651 1.12006 32.98 1.12006C37.1863 1.10553 41.354 1.92331 45.243 3.52631C49.132 5.12932 52.6654 7.48578 55.6398 10.4602C58.6142 13.4345 60.9707 16.9679 62.5737 20.8569C64.1767 24.7459 64.9945 28.9137 64.98 33.1201Z" stroke="#F2F2F2" stroke-width="2" stroke-linecap="round" stroke-linejoin="round" stroke-dasharray="20.1 20.1"/>
<path d="M32.98 44.1201C39.0551 44.1201 43.98 39.1952 43.98 33.1201C43.98 27.045 39.0551 22.1201 32.98 22.1201C26.9048 22.1201 21.98 27.045 21.98 33.1201C21.98 39.1952 26.9048 44.1201 32.98 44.1201Z" stroke="#F2F2F2" stroke-width="2" stroke-linecap="round" stroke-linejoin="round"/>
</svg>
