<svg width="67" height="51" viewBox="0 0 67 51" fill="none" xmlns="http://www.w3.org/2000/svg">
<path d="M47.8398 49.5498H51.4698C54.9905 49.5227 58.3717 48.1703 60.9396 45.7617C63.5076 43.3531 65.0738 40.0654 65.326 36.5537C65.5783 33.042 64.4982 29.5639 62.3009 26.813C60.1036 24.062 56.9505 22.24 53.4698 21.71C53.4698 21.71 53.4698 21.6601 53.4698 21.6401C53.4698 16.3358 51.3627 11.2488 47.612 7.49805C43.8613 3.74732 38.7742 1.64014 33.4698 1.64014C28.1655 1.64014 23.0784 3.74732 19.3277 7.49805C15.577 11.2488 13.4698 16.3358 13.4698 21.6401V21.71C9.98922 22.24 6.83609 24.062 4.63879 26.813C2.4415 29.5639 1.36137 33.042 1.61365 36.5537C1.86592 40.0654 3.43208 43.3531 6.00003 45.7617C8.56798 48.1703 11.9492 49.5227 15.4698 49.5498H19.5898" stroke="#F2F2F2" stroke-width="2" stroke-linecap="round" stroke-linejoin="round"/>
<path d="M22.1597 34.71L33.4697 23.3999L44.7797 34.71" stroke="#F2F2F2" stroke-width="2" stroke-linecap="round" stroke-linejoin="round"/>
<path d="M33.4697 49.3799V23.3799" stroke="#F2F2F2" stroke-width="2" stroke-linecap="round" stroke-linejoin="round"/>
</svg>
