<svg width="23" height="18" viewBox="0 0 23 18" fill="none" xmlns="http://www.w3.org/2000/svg">
<path d="M15.5778 16.1605H16.8002C17.9857 16.1513 19.1242 15.6951 19.9889 14.8827C20.8536 14.0702 21.381 12.9613 21.466 11.7767C21.5509 10.5922 21.1872 9.419 20.4473 8.49108C19.7074 7.56316 18.6457 6.94858 17.4736 6.76977C17.4736 6.76977 17.4736 6.75297 17.4736 6.74622C17.4736 4.95701 16.7641 3.2411 15.5011 1.97594C14.2381 0.710776 12.5252 0 10.739 0C8.95292 0 7.23995 0.710776 5.97697 1.97594C4.71399 3.2411 4.00446 4.95701 4.00446 6.74622V6.76977C2.83243 6.94858 1.77068 7.56316 1.03078 8.49108C0.290888 9.419 -0.0728241 10.5922 0.0121255 11.7767C0.097075 12.9613 0.624445 14.0702 1.48915 14.8827C2.35386 15.6951 3.49241 16.1513 4.67792 16.1605H6.06524" transform="translate(0.977783 1.32664)" stroke="#BDBDBD" stroke-linecap="round" stroke-linejoin="round"/>
<path d="M0 3.81501L3.80841 0L7.61682 3.81501" transform="translate(7.90845 8.66645)" stroke="#BDBDBD" stroke-linecap="round" stroke-linejoin="round"/>
<path d="M0 8.77009V0" transform="translate(11.7168 8.6597)" stroke="#BDBDBD" stroke-linecap="round" stroke-linejoin="round"/>
</svg>
