<svg width="17" height="15" viewBox="0 0 17 15" fill="none" xmlns="http://www.w3.org/2000/svg">
<path fill-rule="evenodd" clip-rule="evenodd" d="M16 7L12.9375 8.53125L16 10.0625L8 14.0625L0 10.0625L3.0625 8.53125L0 7L3 5.5L0 4L8 0L16 4L13 5.5L16 7ZM2.23438 4C3.20313 4.48438 4.16536 4.96354 5.12109 5.4375C6.07683 5.91146 7.03645 6.39323 8 6.88281C8.96355 6.39323 9.92317 5.91146 10.8789 5.4375C11.8346 4.96354 12.7969 4.48438 13.7656 4L8 1.11719L2.23438 4ZM11.8203 9.08594L8 11L4.17969 9.08594L2.23438 10.0625L8 12.9453L13.7656 10.0625L11.8203 9.08594ZM8 9.88281C8.96875 9.39843 9.92968 8.91667 10.8828 8.4375C11.8359 7.95833 12.7969 7.47917 13.7656 7L11.8828 6.05469C11.2318 6.38281 10.5846 6.70703 9.94141 7.02734C9.29817 7.34766 8.65104 7.67187 8 8C7.34896 7.67187 6.70183 7.34766 6.05859 7.02734C5.41536 6.70703 4.76823 6.38281 4.11719 6.05469L2.23438 7C3.20313 7.47917 4.16406 7.95833 5.11719 8.4375C6.07032 8.91667 7.03125 9.39843 8 9.88281Z" transform="translate(0.653076 0.5)" fill="white"/>
</svg>
