<svg width="67" height="63" viewBox="0 0 67 63" fill="none" xmlns="http://www.w3.org/2000/svg">
<path d="M65.3201 25.1802C65.3223 29.9628 63.8957 34.6368 61.223 38.603C58.5504 42.5692 54.7537 45.6465 50.3201 47.4399C47.5401 48.5599 26.3201 61.1802 26.3201 61.1802V49.1802H25.3201C18.9549 49.1802 12.8504 46.6513 8.34949 42.1504C3.84861 37.6495 1.32007 31.5454 1.32007 25.1802C1.32007 18.815 3.84861 12.7103 8.34949 8.20947C12.8504 3.7086 18.9549 1.18018 25.3201 1.18018H41.3201C47.6853 1.18018 53.7897 3.7086 58.2905 8.20947C62.7914 12.7103 65.3201 18.815 65.3201 25.1802Z" stroke="#F2F2F2" stroke-width="2" stroke-linecap="round" stroke-linejoin="round"/>
<path d="M21.22 29.1802C22.8768 29.1802 24.22 27.837 24.22 26.1802C24.22 24.5233 22.8768 23.1802 21.22 23.1802C19.5631 23.1802 18.22 24.5233 18.22 26.1802C18.22 27.837 19.5631 29.1802 21.22 29.1802Z" fill="#F2F2F2"/>
<path d="M33.3201 29.1802C34.9769 29.1802 36.3201 27.837 36.3201 26.1802C36.3201 24.5233 34.9769 23.1802 33.3201 23.1802C31.6632 23.1802 30.3201 24.5233 30.3201 26.1802C30.3201 27.837 31.6632 29.1802 33.3201 29.1802Z" fill="#F2F2F2"/>
<path d="M45.4199 29.1802C47.0768 29.1802 48.4199 27.837 48.4199 26.1802C48.4199 24.5233 47.0768 23.1802 45.4199 23.1802C43.7631 23.1802 42.4199 24.5233 42.4199 26.1802C42.4199 27.837 43.7631 29.1802 45.4199 29.1802Z" fill="#F2F2F2"/>
</svg>
