<svg width="221" height="220" viewBox="0 0 221 220" fill="none" xmlns="http://www.w3.org/2000/svg">
<path fill-rule="evenodd" clip-rule="evenodd" d="M29.6046 106.181C29.6046 106.817 29.5869 107.454 29.5513 108.09C29.5158 108.727 29.498 109.363 29.498 110C29.498 110.637 29.5158 111.273 29.5513 111.91C29.5869 112.546 29.6046 113.183 29.6046 113.819L2 130.9L18.9465 171.532L50.6012 164.318C52.3065 166.157 54.0828 167.925 55.9303 169.623L48.6827 201.132L89.5034 218L106.663 190.523C107.303 190.523 107.942 190.54 108.582 190.576C109.221 190.611 109.861 190.629 110.5 190.629C111.139 190.629 111.779 190.611 112.418 190.576C113.058 190.54 113.697 190.523 114.337 190.523L131.497 218L172.317 201.132L165.07 169.623C166.917 167.925 168.694 166.157 170.399 164.318L202.054 171.532L219 130.9L191.395 113.819C191.395 113.183 191.413 112.546 191.449 111.91C191.484 111.273 191.502 110.637 191.502 110C191.502 109.363 191.484 108.727 191.449 108.09C191.413 107.454 191.395 106.817 191.395 106.181L219 89.1002L202.054 48.4676L170.399 55.6817C168.694 53.8428 166.917 52.0747 165.07 50.3772L172.317 18.8684L131.497 2L114.337 29.4774C113.697 29.4774 113.058 29.4597 112.418 29.4244C111.779 29.389 111.139 29.3713 110.5 29.3713C109.861 29.3713 109.221 29.389 108.582 29.4244C107.942 29.4597 107.303 29.4774 106.663 29.4774L89.5034 2L48.6827 18.8684L55.9303 50.3772C54.0828 52.0747 52.3065 53.8428 50.6012 55.6817L18.9465 48.4676L2 89.1002L29.6046 106.181Z" stroke="#F2F2F2" stroke-width="2"/>
<path fill-rule="evenodd" clip-rule="evenodd" d="M110.5 70.11C104.958 70.11 99.7531 71.1532 94.8859 73.2397C90.0186 75.3261 85.7731 78.1729 82.1494 81.78C78.5256 85.387 75.6657 89.6129 73.5695 94.4578C71.4734 99.3026 70.4254 104.483 70.4254 110C70.4254 115.517 71.4734 120.697 73.5695 125.542C75.6657 130.387 78.5256 134.613 82.1494 138.22C85.7731 141.827 90.0186 144.674 94.8859 146.76C99.7531 148.847 104.958 149.89 110.5 149.89C116.042 149.89 121.247 148.847 126.114 146.76C130.981 144.674 135.227 141.827 138.851 138.22C142.475 134.613 145.334 130.387 147.431 125.542C149.527 120.697 150.575 115.517 150.575 110C150.575 104.483 149.527 99.3026 147.431 94.4578C145.334 89.6129 142.475 85.387 138.851 81.78C135.227 78.1729 130.981 75.3261 126.114 73.2397C121.247 71.1532 116.042 70.11 110.5 70.11Z" stroke="#F2F2F2" stroke-width="2"/>
</svg>
