<svg width="15" height="16" viewBox="0 0 15 16" fill="none" xmlns="http://www.w3.org/2000/svg">
<path fill-rule="evenodd" clip-rule="evenodd" d="M9.39062 9.39844C10.099 9.64323 10.7383 9.98567 11.3086 10.4258C11.8789 10.8659 12.3633 11.375 12.7617 11.9531C13.1602 12.5313 13.4661 13.1641 13.6797 13.8516C13.8932 14.5391 14 15.2552 14 16H13C13 15.1458 12.8477 14.3529 12.543 13.6211C12.2383 12.8893 11.8177 12.2552 11.2812 11.7188C10.7448 11.1823 10.1107 10.7617 9.37891 10.457C8.64713 10.1523 7.85417 10 7 10C6.44271 10 5.90625 10.0703 5.39062 10.2109C4.875 10.3516 4.39453 10.5508 3.94922 10.8086C3.5039 11.0664 3.10026 11.3763 2.73828 11.7383C2.3763 12.1003 2.06641 12.5039 1.80859 12.9492C1.55078 13.3945 1.35156 13.875 1.21094 14.3906C1.07031 14.9063 1 15.4427 1 16H0C0 15.25 0.109374 14.5326 0.328125 13.8477C0.546876 13.1628 0.856769 12.5339 1.25781 11.9609C1.65886 11.388 2.14453 10.8828 2.71484 10.4453C3.28516 10.0078 3.92187 9.66146 4.625 9.40625C4.21875 9.1875 3.85417 8.92188 3.53125 8.60938C3.20833 8.29687 2.93359 7.94922 2.70703 7.56641C2.48047 7.18359 2.30599 6.77474 2.18359 6.33984C2.0612 5.90495 2 5.45834 2 5C2 4.30729 2.13021 3.65756 2.39062 3.05078C2.65104 2.44401 3.00781 1.91406 3.46094 1.46094C3.91406 1.00781 4.44401 0.651043 5.05078 0.390625C5.65756 0.130207 6.30729 0 7 0C7.69271 0 8.34245 0.130207 8.94922 0.390625C9.55599 0.651043 10.0859 1.00781 10.5391 1.46094C10.9922 1.91406 11.349 2.44401 11.6094 3.05078C11.8698 3.65756 12 4.30729 12 5C12 5.45834 11.9388 5.90364 11.8164 6.33594C11.694 6.76823 11.5195 7.17448 11.293 7.55469C11.0664 7.9349 10.793 8.28255 10.4727 8.59766C10.1523 8.91276 9.79167 9.17969 9.39062 9.39844ZM3 5C3 5.55209 3.10547 6.07031 3.31641 6.55469C3.52734 7.03906 3.8138 7.46224 4.17578 7.82422C4.53776 8.1862 4.96094 8.47266 5.44531 8.68359C5.92969 8.89453 6.44791 9 7 9C7.55209 9 8.07031 8.89453 8.55469 8.68359C9.03907 8.47266 9.46224 8.1862 9.82422 7.82422C10.1862 7.46224 10.4727 7.03906 10.6836 6.55469C10.8945 6.07031 11 5.55209 11 5C11 4.44791 10.8945 3.92969 10.6836 3.44531C10.4727 2.96094 10.1862 2.53776 9.82422 2.17578C9.46224 1.8138 9.03907 1.52734 8.55469 1.31641C8.07031 1.10547 7.55209 1 7 1C6.44791 1 5.92969 1.10547 5.44531 1.31641C4.96094 1.52734 4.53776 1.8138 4.17578 2.17578C3.8138 2.53776 3.52734 2.96094 3.31641 3.44531C3.10547 3.92969 3 4.44791 3 5Z" transform="translate(0.652832)" fill="white"/>
</svg>
