<svg id="Layer_1" data-name="Layer 1" xmlns="http://www.w3.org/2000/svg" viewBox="0 0 64 64">
  <title>brick</title>
  <g>
    <g>
      <path d="M40.6,10.91v.8l4.48,1.85a15.88,15.88,0,0,1,1.6-.14Z" fill="#525a63"/>
      <path d="M21.39,13.16l4.79-1.4V11l-6.07,1.78A12.2,12.2,0,0,1,21.39,13.16Z" fill="#525a63"/>
      <path d="M63.38,20.3l-8.64-3.56v.81l7.47,3.09L29.1,30.32,1.77,18.91l7.39-2.17V16L.7,18.47h0l-.2.06V43.9L29.36,56.41,63.5,46.25Zm-34.75,35L1.22,43.43v-24L28.63,30.91Zm.73.35V31l33.3-9.7.11,24.45Z" fill="#525a63"/>
    </g>
    <path d="M40.6,10.35c0-1.53-3.23-2.76-7.21-2.76s-7.21,1.23-7.21,2.76h0v4.07h0c0,1.52,3.23,2.76,7.21,2.76s7.2-1.24,7.21-2.76h0V10.35Zm-12-1.28a14,14,0,0,1,4.84-.76,14,14,0,0,1,4.84.76c1.13.44,1.64,1,1.64,1.28s-.51.84-1.64,1.27a14,14,0,0,1-4.84.76,14,14,0,0,1-4.84-.76c-1.14-.43-1.65-.95-1.65-1.27S27.41,9.51,28.55,9.07Zm9.68,6.62a14,14,0,0,1-4.84.76,14,14,0,0,1-4.84-.76c-1.14-.44-1.65-.95-1.65-1.28V11.55c1.17.92,3.64,1.56,6.49,1.56s5.31-.64,6.48-1.56v2.86C39.87,14.74,39.36,15.25,38.23,15.69Z" fill="#525a63"/>
    <path d="M54.74,16.16c0-1.53-3.23-2.76-7.21-2.76s-7.22,1.23-7.22,2.76h0v4.07h0c0,1.52,3.23,2.76,7.21,2.76s7.2-1.24,7.21-2.76h0V16.16ZM42.69,14.88a14,14,0,0,1,4.84-.76,14.09,14.09,0,0,1,4.84.76c1.13.44,1.64,1,1.64,1.28s-.51.84-1.64,1.28a14.09,14.09,0,0,1-4.84.76,14,14,0,0,1-4.84-.76C41.55,17,41,16.48,41,16.16S41.55,15.32,42.69,14.88Zm9.68,6.62a14.09,14.09,0,0,1-4.84.76,14,14,0,0,1-4.84-.76c-1.14-.43-1.65-.95-1.65-1.27V17.37c1.17.92,3.63,1.55,6.49,1.55s5.31-.63,6.48-1.55v2.86C54,20.55,53.5,21.07,52.37,21.5Z" fill="#525a63"/>
    <path d="M37.62,21.16c0-1.53-3.23-2.76-7.21-2.76s-7.21,1.23-7.21,2.76h0v4.07h0c0,1.52,3.23,2.76,7.21,2.76s7.2-1.24,7.21-2.76h0V21.16Zm-12-1.28a14,14,0,0,1,4.84-.76,14,14,0,0,1,4.84.76c1.13.44,1.64,1,1.64,1.28s-.51.84-1.64,1.28a14,14,0,0,1-4.84.76,14,14,0,0,1-4.84-.76c-1.14-.44-1.65-1-1.65-1.28S24.43,20.32,25.57,19.88Zm9.68,6.62a14,14,0,0,1-4.84.76,14,14,0,0,1-4.84-.76c-1.14-.43-1.65-.95-1.65-1.27V22.37c1.17.92,3.64,1.55,6.49,1.55s5.31-.63,6.48-1.55v2.86C36.89,25.55,36.38,26.07,35.25,26.5Z" fill="#525a63"/>
    <path d="M23.58,15.14c0-1.52-3.23-2.76-7.21-2.76s-7.21,1.24-7.21,2.76h0v4.06h0c0,1.53,3.23,2.76,7.21,2.76s7.2-1.23,7.21-2.76h0V15.15h0Zm-12-1.27a13.8,13.8,0,0,1,4.84-.77,13.8,13.8,0,0,1,4.84.77c1.13.43,1.64,1,1.64,1.27s-.51.84-1.64,1.28a14,14,0,0,1-4.84.76,14,14,0,0,1-4.84-.76c-1.14-.44-1.65-1-1.65-1.28S10.39,14.3,11.53,13.87Zm9.68,6.62a14,14,0,0,1-4.84.76,14,14,0,0,1-4.84-.76c-1.14-.44-1.65-1-1.65-1.28V16.35c1.17.92,3.64,1.55,6.49,1.55s5.31-.63,6.48-1.55v2.86C22.85,19.53,22.34,20.05,21.21,20.49Z" fill="#525a63"/>
  </g>
</svg>
