<svg width="17" height="16" viewBox="0 0 17 16" fill="none" xmlns="http://www.w3.org/2000/svg">
<path fill-rule="evenodd" clip-rule="evenodd" d="M13.8828 7.67188C13.8828 7.71875 13.8841 7.76562 13.8867 7.8125C13.8893 7.85938 13.8906 7.90625 13.8906 7.95312C13.8906 8 13.8893 8.04688 13.8867 8.09375C13.8841 8.14062 13.8828 8.1875 13.8828 8.23438L15.9062 9.49219L14.6641 12.4844L12.3438 11.9531C12.2187 12.0885 12.0885 12.2187 11.9531 12.3438L12.4844 14.6641L9.49219 15.9062L8.23438 13.8828C8.1875 13.8828 8.14062 13.8841 8.09375 13.8867C8.04688 13.8893 8 13.8906 7.95312 13.8906C7.90625 13.8906 7.85938 13.8893 7.8125 13.8867C7.76562 13.8841 7.71875 13.8828 7.67188 13.8828L6.41406 15.9062L3.42188 14.6641L3.95312 12.3438C3.81771 12.2187 3.6875 12.0885 3.5625 11.9531L1.24219 12.4844L0 9.49219L2.02344 8.23438C2.02344 8.1875 2.02214 8.14062 2.01953 8.09375C2.01693 8.04688 2.01562 8 2.01562 7.95312C2.01562 7.90625 2.01693 7.85938 2.01953 7.8125C2.02214 7.76562 2.02344 7.71875 2.02344 7.67188L0 6.41406L1.24219 3.42188L3.5625 3.95312C3.6875 3.81771 3.81771 3.6875 3.95312 3.5625L3.42188 1.24219L6.41406 0L7.67188 2.02344C7.71875 2.02344 7.76562 2.02214 7.8125 2.01953C7.85938 2.01693 7.90625 2.01562 7.95312 2.01562C8 2.01562 8.04688 2.01693 8.09375 2.01953C8.14062 2.02214 8.1875 2.02344 8.23438 2.02344L9.49219 0L12.4844 1.24219L11.9531 3.5625C12.0885 3.6875 12.2187 3.81771 12.3438 3.95312L14.6641 3.42188L15.9062 6.41406L13.8828 7.67188ZM12.9688 8.6875C12.9792 8.5625 12.9896 8.4388 13 8.31641C13.0104 8.19401 13.0156 8.07031 13.0156 7.94531C13.0156 7.82552 13.0104 7.70313 13 7.57812C12.9896 7.45312 12.9792 7.33073 12.9688 7.21094L14.8125 6.0625L14.1406 4.4375L12.0234 4.92969C11.862 4.73177 11.6966 4.54948 11.5273 4.38281C11.3581 4.21615 11.1745 4.04948 10.9766 3.88281L11.4688 1.76562L9.84375 1.09375L8.6875 2.9375C8.56771 2.92708 8.44531 2.91667 8.32031 2.90625C8.19531 2.89583 8.07292 2.89062 7.95312 2.89062C7.82812 2.89062 7.70443 2.89583 7.58203 2.90625C7.45963 2.91667 7.33594 2.92708 7.21094 2.9375L6.0625 1.09375L4.4375 1.76562L4.92969 3.88281C4.73177 4.04427 4.54948 4.20963 4.38281 4.37891C4.21615 4.54818 4.04948 4.73177 3.88281 4.92969L1.76562 4.4375L1.09375 6.0625L2.9375 7.21875C2.92708 7.34375 2.91667 7.46745 2.90625 7.58984C2.89583 7.71224 2.89062 7.83594 2.89062 7.96094C2.89062 8.08073 2.89583 8.20312 2.90625 8.32812C2.91667 8.45313 2.92708 8.57552 2.9375 8.69531L1.09375 9.84375L1.76562 11.4688L3.88281 10.9766C4.04427 11.1745 4.20963 11.3568 4.37891 11.5234C4.54818 11.6901 4.73177 11.8568 4.92969 12.0234L4.4375 14.1406L6.0625 14.8125L7.21875 12.9688C7.33854 12.9792 7.46094 12.9896 7.58594 13C7.71094 13.0104 7.83333 13.0156 7.95312 13.0156C8.07813 13.0156 8.20182 13.0104 8.32422 13C8.44662 12.9896 8.57031 12.9792 8.69531 12.9688L9.84375 14.8125L11.4688 14.1406L10.9766 12.0234C11.1745 11.862 11.3568 11.6966 11.5234 11.5273C11.6901 11.3581 11.8568 11.1745 12.0234 10.9766L14.1406 11.4688L14.8125 9.84375L12.9688 8.6875ZM7.95312 5.01562C8.35938 5.01562 8.74088 5.09245 9.09766 5.24609C9.45443 5.39974 9.76562 5.60937 10.0312 5.875C10.2969 6.14063 10.5065 6.45182 10.6602 6.80859C10.8138 7.16537 10.8906 7.54687 10.8906 7.95312C10.8906 8.35938 10.8138 8.74088 10.6602 9.09766C10.5065 9.45443 10.2969 9.76562 10.0312 10.0312C9.76562 10.2969 9.45443 10.5065 9.09766 10.6602C8.74088 10.8138 8.35938 10.8906 7.95312 10.8906C7.54687 10.8906 7.16537 10.8138 6.80859 10.6602C6.45182 10.5065 6.14063 10.2969 5.875 10.0312C5.60937 9.76562 5.39974 9.45443 5.24609 9.09766C5.09245 8.74088 5.01562 8.35938 5.01562 7.95312C5.01562 7.54687 5.09245 7.16537 5.24609 6.80859C5.39974 6.45182 5.60937 6.14063 5.875 5.875C6.14063 5.60937 6.45182 5.39974 6.80859 5.24609C7.16537 5.09245 7.54687 5.01562 7.95312 5.01562ZM7.95312 10.0156C8.23958 10.0156 8.50781 9.96224 8.75781 9.85547C9.00781 9.7487 9.22656 9.60156 9.41406 9.41406C9.60156 9.22656 9.7487 9.00781 9.85547 8.75781C9.96224 8.50781 10.0156 8.23958 10.0156 7.95312C10.0156 7.66667 9.96224 7.39844 9.85547 7.14844C9.7487 6.89844 9.60156 6.67969 9.41406 6.49219C9.22656 6.30469 9.00781 6.15755 8.75781 6.05078C8.50781 5.94401 8.23958 5.89062 7.95312 5.89062C7.66667 5.89062 7.39844 5.94401 7.14844 6.05078C6.89844 6.15755 6.67969 6.30469 6.49219 6.49219C6.30469 6.67969 6.15755 6.89844 6.05078 7.14844C5.94401 7.39844 5.89062 7.66667 5.89062 7.95312C5.89062 8.23958 5.94401 8.50781 6.05078 8.75781C6.15755 9.00781 6.30469 9.22656 6.49219 9.41406C6.67969 9.60156 6.89844 9.7487 7.14844 9.85547C7.39844 9.96224 7.66667 10.0156 7.95312 10.0156Z" transform="translate(0.700195 0.046875)" fill="white"/>
</svg>
