<svg id="Layer_1" data-name="Layer 1" xmlns="http://www.w3.org/2000/svg" viewBox="0 0 64 64">
  <title>roi</title>
  <g>
    <path d="M32.13,38.45a3.67,3.67,0,0,1-2.69-.94,3.43,3.43,0,0,1-1-2.59H27.2a4.52,4.52,0,0,0,1.17,3.29,4.81,4.81,0,0,0,3.3,1.34v2h1.07v-2a4.62,4.62,0,0,0,3-1.21,3.74,3.74,0,0,0,1.09-2.81,3.94,3.94,0,0,0-.42-1.89,3.72,3.72,0,0,0-1.26-1.37,11.31,11.31,0,0,0-2.71-1.21,7.77,7.77,0,0,1-2.63-1.35,2.59,2.59,0,0,1-.78-2,2.74,2.74,0,0,1,.85-2.11,3.28,3.28,0,0,1,2.35-.79,3,3,0,0,1,2.36,1,3.91,3.91,0,0,1,.86,2.65H36.7a5,5,0,0,0-1-3.34,4,4,0,0,0-2.89-1.39V21.55H31.7V23.7a4.44,4.44,0,0,0-2.89,1.22,3.83,3.83,0,0,0-1.06,2.81,3.78,3.78,0,0,0,1,2.68,7.86,7.86,0,0,0,3.37,1.79,7.34,7.34,0,0,1,2.7,1.42,2.55,2.55,0,0,1,.76,1.92,2.63,2.63,0,0,1-.95,2.1A3.65,3.65,0,0,1,32.13,38.45Z" fill="#525a63"/>
    <path d="M32,49A17,17,0,1,0,15,32,17,17,0,0,0,32,49Zm0-33A16,16,0,1,1,16,32,16,16,0,0,1,32,16Z" fill="#525a63"/>
    <path d="M18,55.07l.56-.84A26,26,0,0,1,27.18,6.45l-.21-1a27,27,0,0,0-9,49.6Z" fill="#525a63"/>
    <path d="M59,32A27,27,0,0,0,32.94,5l4.8-3a.44.44,0,0,0,.14-.59.42.42,0,0,0-.36-.2.46.46,0,0,0-.23.06L31.2,5.1a.45.45,0,0,0-.2.36.42.42,0,0,0,.19.36l5,4.92a.41.41,0,0,0,.58-.12.42.42,0,0,0-.12-.59L32.75,6A26,26,0,0,1,32,58H1.5v1H32A27,27,0,0,0,59,32Z" fill="#525a63"/>
    <path d="M62.38,58.14l-6.05-3.85a.43.43,0,0,0-.59.13.44.44,0,0,0,.13.59l4.7,3h-14v1h14l-4.7,3a.44.44,0,0,0-.13.59.44.44,0,0,0,.36.2.48.48,0,0,0,.23-.07l6.05-3.85a.42.42,0,0,0,0-.72Z" fill="#525a63"/>
  </g>
</svg>
